<svg width="800" height="800" viewBox="0 0 800 800" fill="none" xmlns="http://www.w3.org/2000/svg">
    <path opacity="0.32" d="M641.179 400.052H158.672" stroke="#FE7D33" stroke-width="3" stroke-linecap="round"/>
    <path opacity="0.3" d="M541.687 409.965L258.163 390.139" stroke="#FE7D33" stroke-width="3" stroke-linecap="round"/>
    <path opacity="0.84" d="M588.106 426.499L211.747 373.605" stroke="#FE7D33" stroke-width="3" stroke-linecap="round"/>
    <path opacity="0.8" d="M540.007 429.827L259.846 370.277" stroke="#FE7D33" stroke-width="3" stroke-linecap="round"/>
    <path opacity="0.93" d="M6 287.096L793.852 513.009" stroke="#FE7D33" stroke-width="3" stroke-linecap="round"/>
    <path opacity="0.39" d="M286.574 358.796L513.279 441.31" stroke="#FE7D33" stroke-width="3" stroke-linecap="round"/>
    <path opacity="0.1" d="M359.168 381.905L440.684 418.199" stroke="#FE7D33" stroke-width="3" stroke-linecap="round"/>
    <path opacity="0.3" d="M70.1914 224.729L729.661 575.375" stroke="#FE7D33" stroke-width="3" stroke-linecap="round"/>
    <path opacity="0.17" d="M674.588 571.68L125.265 228.425" stroke="#FE7D33" stroke-width="3" stroke-linecap="round"/>
    <path opacity="0.5" d="M113.843 192.201L686.009 607.904" stroke="#FE7D33" stroke-width="3" stroke-linecap="round"/>
    <path opacity="0.51" d="M170.812 207.802L629.042 592.303" stroke="#FE7D33" stroke-width="3" stroke-linecap="round"/>
    <path opacity="0.18" d="M470.453 468.159L329.399 331.945" stroke="#FE7D33" stroke-width="3" stroke-linecap="round"/>
    <path opacity="0.9" d="M254.712 238.776L545.139 561.328" stroke="#FE7D33" stroke-width="3" stroke-linecap="round"/>
    <path opacity="0.75" d="M511.493 542.853L288.358 257.253" stroke="#FE7D33" stroke-width="3" stroke-linecap="round"/>
    <path opacity="0.93" d="M217.277 129.265L582.574 670.84" stroke="#FE7D33" stroke-width="3" stroke-linecap="round"/>
    <path opacity="0.71" d="M311.521 246.931L488.33 553.173" stroke="#FE7D33" stroke-width="3" stroke-linecap="round"/>
    <path opacity="0.42" d="M294.167 183.215L505.684 616.89" stroke="#FE7D33" stroke-width="3" stroke-linecap="round"/>
    <path opacity="0.73" d="M505.983 662.552L293.869 137.553" stroke="#FE7D33" stroke-width="3" stroke-linecap="round"/>
    <path opacity="0.6" d="M464.605 599.115L335.246 200.99" stroke="#FE7D33" stroke-width="3" stroke-linecap="round"/>
    <path opacity="0.54" d="M309.581 37.6978L490.271 762.407" stroke="#FE7D33" stroke-width="3" stroke-linecap="round"/>
    <path opacity="0.62" d="M350.095 117.441L449.759 682.663" stroke="#FE7D33" stroke-width="3" stroke-linecap="round"/>
    <path opacity="0.74" d="M358.875 9.47803L440.977 790.627" stroke="#FE7D33" stroke-width="3" stroke-linecap="round"/>
    <path opacity="0.76" d="M401.175 435.833L398.676 364.272" stroke="#FE7D33" stroke-width="3" stroke-linecap="round"/>
    <path opacity="0.94" d="M389.815 689.6L410.037 110.504" stroke="#FE7D33" stroke-width="3" stroke-linecap="round"/>
    <path opacity="0.19" d="M424.625 165.051L375.226 635.055" stroke="#FE7D33" stroke-width="3" stroke-linecap="round"/>
    <path opacity="0.47" d="M361.189 619.74L438.663 180.364" stroke="#FE7D33" stroke-width="3" stroke-linecap="round"/>
    <path opacity="0.6" d="M337.963 648.57L461.888 151.535" stroke="#FE7D33" stroke-width="3" stroke-linecap="round"/>
    <path opacity="0.48" d="M319.417 647.833L480.435 152.271" stroke="#FE7D33" stroke-width="3" stroke-linecap="round"/>
    <path opacity="0.61" d="M345.041 535.898L454.812 264.206" stroke="#FE7D33" stroke-width="3" stroke-linecap="round"/>
    <path opacity="0.43" d="M297.547 609.959L502.304 190.146" stroke="#FE7D33" stroke-width="3" stroke-linecap="round"/>
    <path opacity="0.39" d="M381.748 431.536L418.102 368.57" stroke="#FE7D33" stroke-width="3" stroke-linecap="round"/>
    <path opacity="0.99" d="M395.305 406.902L404.545 393.203" stroke="#FE7D33" stroke-width="3" stroke-linecap="round"/>
    <path opacity="0.41" d="M343.294 472.538L456.557 327.567" stroke="#FE7D33" stroke-width="3" stroke-linecap="round"/>
    <path opacity="0.69" d="M469.216 323.098L330.636 477.006" stroke="#FE7D33" stroke-width="3" stroke-linecap="round"/>
    <path opacity="0.86" d="M548.903 256.186L250.948 543.919" stroke="#FE7D33" stroke-width="3" stroke-linecap="round"/>
    <path opacity="0.76" d="M449.715 358.274L350.136 441.831" stroke="#FE7D33" stroke-width="3" stroke-linecap="round"/>
    <path opacity="0.82" d="M184.249 556.751L615.602 243.354" stroke="#FE7D33" stroke-width="3" stroke-linecap="round"/>
    <path opacity="0.67" d="M391.518 405.307L408.334 394.799" stroke="#FE7D33" stroke-width="3" stroke-linecap="round"/>
    <path opacity="0.57" d="M745.224 216.455L54.6291 583.651" stroke="#FE7D33" stroke-width="3" stroke-linecap="round"/>
    <path opacity="0.1" d="M730.521 252.862L69.3319 547.242" stroke="#FE7D33" stroke-width="3" stroke-linecap="round"/>
    <path opacity="0.84" d="M298.479 436.977L501.374 363.129" stroke="#FE7D33" stroke-width="3" stroke-linecap="round"/>
    <path opacity="0.42" d="M732.963 304.556L66.8894 495.549" stroke="#FE7D33" stroke-width="3" stroke-linecap="round"/>
    <path opacity="0.99" d="M600.887 357.337L198.963 442.768" stroke="#FE7D33" stroke-width="3" stroke-linecap="round"/>
    <path opacity="0.14" d="M374.289 403.655L425.562 396.449" stroke="#FE7D33" stroke-width="3" stroke-linecap="round"/>
    <path opacity="0.68" d="M187.283 414.922L612.569 385.183" stroke="#FE7D33" stroke-width="3" stroke-linecap="round"/>
    <path opacity="0.29" d="M266.63 400.052L533.221 400.052" stroke="#FE7D33" stroke-width="3" stroke-linecap="round"/>
    <path opacity="0.76" d="M435.641 402.55L364.21 397.555" stroke="#FE7D33" stroke-width="3" stroke-linecap="round"/>
    <path opacity="0.46" d="M711.375 443.824L88.4744 356.281" stroke="#FE7D33" stroke-width="3" stroke-linecap="round"/>
    <path opacity="0.55" d="M763.059 477.238L36.7952 322.866" stroke="#FE7D33" stroke-width="3" stroke-linecap="round"/>
    <path opacity="0.95" d="M570.944 449.091L228.907 351.014" stroke="#FE7D33" stroke-width="3" stroke-linecap="round"/>
    <path opacity="0.51" d="M515.866 442.251L283.986 357.853" stroke="#FE7D33" stroke-width="3" stroke-linecap="round"/>
    <path opacity="0.47" d="M726.495 545.45L73.3575 254.655" stroke="#FE7D33" stroke-width="3" stroke-linecap="round"/>
    <path opacity="0.17" d="M414.516 407.81L385.336 392.295" stroke="#FE7D33" stroke-width="3" stroke-linecap="round"/>
    <path opacity="0.21" d="M486.342 454.051L313.511 346.054" stroke="#FE7D33" stroke-width="3" stroke-linecap="round"/>
    <path opacity="0.97" d="M618.276 558.693L181.576 241.411" stroke="#FE7D33" stroke-width="3" stroke-linecap="round"/>
    <path opacity="0.2" d="M272.077 292.774L527.774 507.33" stroke="#FE7D33" stroke-width="3" stroke-linecap="round"/>
    <path opacity="0.27" d="M556.828 551.571L243.024 248.534" stroke="#FE7D33" stroke-width="3" stroke-linecap="round"/>
    <path opacity="0.8" d="M347.222 341.518L452.631 458.586" stroke="#FE7D33" stroke-width="3" stroke-linecap="round"/>
    <path opacity="0.36" d="M457.235 473.405L342.616 326.699" stroke="#FE7D33" stroke-width="3" stroke-linecap="round"/>
    <path opacity="0.67" d="M493.868 539.328L305.983 260.777" stroke="#FE7D33" stroke-width="3" stroke-linecap="round"/>
    <path opacity="0.79" d="M228.349 102.873L571.502 697.231" stroke="#FE7D33" stroke-width="3" stroke-linecap="round"/>
    <path opacity="0.53" d="M475.985 555.997L323.867 244.108" stroke="#FE7D33" stroke-width="3" stroke-linecap="round"/>
    <path opacity="0.32" d="M340.294 252.46L459.557 547.645" stroke="#FE7D33" stroke-width="3" stroke-linecap="round"/>
    <path opacity="0.11" d="M472.265 622.688L327.587 177.416" stroke="#FE7D33" stroke-width="3" stroke-linecap="round"/>
    <path opacity="0.62" d="M463.754 656.052L336.098 144.052" stroke="#FE7D33" stroke-width="3" stroke-linecap="round"/>
    <path opacity="0.31" d="M415.134 486.301L384.718 313.805" stroke="#FE7D33" stroke-width="3" stroke-linecap="round"/>
    <path opacity="0.84" d="M441.552 796.104L358.298 4" stroke="#FE7D33" stroke-width="3" stroke-linecap="round"/>
    <path opacity="0.67" d="M390.623 133.624L409.23 666.48" stroke="#FE7D33" stroke-width="3" stroke-linecap="round"/>
    <path opacity="0.09" d="M403.097 309.224L396.754 490.88" stroke="#FE7D33" stroke-width="3" stroke-linecap="round"/>
    <path opacity="0.46" d="M409.828 305.832L390.022 494.272" stroke="#FE7D33" stroke-width="3" stroke-linecap="round"/>
    <path opacity="0.23" d="M450.331 114.187L349.52 685.918" stroke="#FE7D33" stroke-width="3" stroke-linecap="round"/>
    <path opacity="0.45" d="M478.945 83.1259L320.907 716.979" stroke="#FE7D33" stroke-width="3" stroke-linecap="round"/>
    <path opacity="0.38" d="M389.714 431.483L410.139 368.621" stroke="#FE7D33" stroke-width="3" stroke-linecap="round"/>
    <path opacity="0.72" d="M393.942 414.863L405.91 385.242" stroke="#FE7D33" stroke-width="3" stroke-linecap="round"/>
    <path opacity="0.18" d="M217.626 773.825L582.228 26.2803" stroke="#FE7D33" stroke-width="3" stroke-linecap="round"/>
    <path opacity="0.12" d="M533.496 168.7L266.354 631.403" stroke="#FE7D33" stroke-width="3" stroke-linecap="round"/>
    <path opacity="0.82" d="M237.605 640.702L562.246 159.403" stroke="#FE7D33" stroke-width="3" stroke-linecap="round"/>
    <path opacity="0.98" d="M563.038 191.278L236.813 608.826" stroke="#FE7D33" stroke-width="3" stroke-linecap="round"/>
    <path opacity="0.27" d="M240.338 577.292L559.513 222.813" stroke="#FE7D33" stroke-width="3" stroke-linecap="round"/>
    <path opacity="0.47" d="M648.75 159.765L151.101 640.34" stroke="#FE7D33" stroke-width="3" stroke-linecap="round"/>
    <path opacity="0.85" d="M286.424 495.292L513.429 304.812" stroke="#FE7D33" stroke-width="3" stroke-linecap="round"/>
    <path opacity="0.91" d="M473.006 346.957L326.845 453.149" stroke="#FE7D33" stroke-width="3" stroke-linecap="round"/>
    <path opacity="0.82" d="M165.903 546.286L633.949 253.819" stroke="#FE7D33" stroke-width="3" stroke-linecap="round"/>
    <path opacity="0.36" d="M530.263 330.751L269.588 469.354" stroke="#FE7D33" stroke-width="3" stroke-linecap="round"/>
    <path opacity="0.34" d="M564.469 326.793L235.384 473.311" stroke="#FE7D33" stroke-width="3" stroke-linecap="round"/>
    <path opacity="0.64" d="M48.999 527.779L750.851 272.326" stroke="#FE7D33" stroke-width="3" stroke-linecap="round"/>
    <path opacity="0.31" d="M517.469 366.347L282.384 433.757" stroke="#FE7D33" stroke-width="3" stroke-linecap="round"/>
    <path opacity="0.41" d="M599.272 357.68L200.581 442.424" stroke="#FE7D33" stroke-width="3" stroke-linecap="round"/>
</svg>
